<?xml version="1.0" encoding="utf-8"?>
<!-- Generator: Adobe Illustrator 26.0.3, SVG Export Plug-In . SVG Version: 6.00 Build 0)  -->
<svg version="1.1" id="Layer_1" xmlns="http://www.w3.org/2000/svg" xmlns:xlink="http://www.w3.org/1999/xlink" x="0px" y="0px"
	 viewBox="0 0 195 40" style="enable-background:new 0 0 195 40;" xml:space="preserve">
<style type="text/css">
	.st0{fill:url(#SVGID_1_);}
	.st1{fill:url(#SVGID_00000126315671538104127070000011615907199072415417_);}
	.st2{fill:url(#SVGID_00000098217529742977309460000013299646628700489114_);}
	.st3{fill:url(#SVGID_00000171715725517504782430000010458860251043827084_);}
	.st4{fill:url(#SVGID_00000036223129301972791260000018263214082251002261_);}
	.st5{fill:url(#SVGID_00000018232617632129184040000012049395396861191051_);}
	.st6{fill:url(#SVGID_00000001627017404895928080000010256177069220156037_);}
	.st7{fill:url(#SVGID_00000178922528770334235300000012575244602266319019_);}
	.st8{fill:url(#SVGID_00000100382929694477863790000001783753270195373224_);}
</style>
<linearGradient id="SVGID_1_" gradientUnits="userSpaceOnUse" x1="51.8138" y1="38.4628" x2="11.8506" y2="-0.3995">
	<stop  offset="9.093900e-04" style="stop-color:#A44C96"/>
	<stop  offset="0.1273" style="stop-color:#9D529A"/>
	<stop  offset="0.3162" style="stop-color:#8861A7"/>
	<stop  offset="0.5432" style="stop-color:#677BBA"/>
	<stop  offset="0.55" style="stop-color:#667CBB"/>
	<stop  offset="0.7205" style="stop-color:#5C93CD"/>
	<stop  offset="1" style="stop-color:#49C1F0"/>
</linearGradient>
<path class="st0" d="M49.6,30C49.6,30,49.6,30,49.6,30l-2.5-4.9l-2.3-4.6v-2.3c0,0,0,0,0,0c0,0,0,0,0,0L43.7,11h0c0,0,0,0,0,0l0,0
	c0,0,0,0,0,0c0,0,0,0,0,0c0,0,0,0,0,0c0,0,0,0,0-0.1c0,0,0,0,0,0c0,0,0,0,0,0c0,0,0,0,0,0l-5.9-5.9c0,0,0,0,0,0c0,0,0,0,0,0
	c0,0,0,0,0,0c0,0,0,0,0,0L34,2.4c0,0,0,0,0,0c-0.1,0-0.1,0-0.2,0h-5.9c0,0,0,0-0.1,0c0,0,0,0-0.1,0l-3.3,1.1l-1-2.1c0,0,0,0,0,0
	c0-0.1-0.1-0.1-0.1-0.1L20.9,0c0,0,0,0,0,0c0,0-0.1,0-0.1,0c0,0,0,0-0.1,0c0,0,0,0-0.1,0l-4.7,1.2c-0.1,0-0.2,0.1-0.2,0.1l-2.4,3.2
	l-4.8,6.3l0,0c0,0,0,0.1,0,0.1c0,0,0,0,0,0.1c0,0,0,0,0,0v2.4c0,0,0,0,0,0c0,0,0,0.1,0,0.1c0,0,0,0,0,0.1c0,0,0,0,0,0l2.4,2.4
	c0.1,0.1,0.2,0.1,0.3,0.1h9.2v1.9l-1.1,1.1l-1.1,1c-0.5,0-2.6,0.4-2.6,2.7c0,0,0,0,0,0.1c0,0,0,0.1,0,0.1c0,0,0,0.1,0.1,0.1
	c0,0,0,0,0,0.1c0.1,0.1,0.1,0.1,0.2,0.1h4.9c-0.5,0.4-0.8,1-0.8,1.8c-0.1,0.1-0.1,0.3-0.1,0.4c0.1,0.1,0.2,0.2,0.3,0.2h6
	c0.1,0,0.1,0,0.2-0.1c0,0,0,0,0,0c0,0,0,0,0,0c0,0,0,0,0,0c0,0,0,0,0,0l3.7-5.5l1.4,1l-0.5,0.5L30,22.6c-0.5,0-2.6,0.4-2.6,2.7
	c0,0,0,0,0,0c0,0.1,0,0.1,0,0.2c0.1,0.1,0.2,0.2,0.3,0.2l6,0c0.1,0,0.1,0,0.2-0.1c0,0,0,0,0,0c0,0,0,0,0-0.1c0,0,0,0,0-0.1l0.5-1.1
	v0.7l-1,1.1l-2.2,1c-0.4,0-2.6,0.3-2.6,2.7c0,0,0,0,0,0c0,0.1,0,0.1,0,0.2c0.1,0.1,0.2,0.2,0.3,0.2H35c0,0,0,0,0.1,0c0,0,0,0,0.1,0
	c0,0,0,0,0.1,0c0,0,0,0,0,0c0,0,0,0,0,0c0,0,0,0,0,0c0,0,0,0,0,0c0,0,0,0,0,0l3.2-4.8l3.5,2.4l2.3,2.4l1.1,4.4l-2,2.1l-2-1.1l-1-2
	l0.6-0.6l0.9,1.9c0,0,0,0,0,0c0,0,0,0,0,0c0,0,0,0,0.1,0.1c0,0,0,0,0,0c0.1,0,0.1,0.1,0.2,0.1h2.4c0.1,0,0.2-0.1,0.3-0.2
	c0.1-0.1,0.1-0.2,0-0.3l-1.2-3.4c0,0,0,0,0,0c0,0,0,0,0,0c0,0,0-0.1-0.1-0.1c0,0,0,0,0,0c0,0,0,0,0,0c0,0,0,0,0,0l-2.4-1.3
	c0,0,0,0,0,0c0,0,0,0-0.1,0c0,0-0.1,0-0.1,0c0,0-0.1,0-0.1,0c0,0-0.1,0-0.1,0L38.4,31c0,0,0,0-0.1,0c0,0,0,0,0,0c0,0,0,0,0,0
	c0,0,0,0,0,0c0,0,0,0,0,0l-1.2,2.4c0,0,0,0,0,0.1c0,0,0,0.1,0,0.1c0,0,0,0.1,0,0.1c0,0,0,0,0,0.1l1.2,3.6v0c0,0,0,0,0,0h0
	c0,0,0,0,0,0h0c0,0,0,0,0,0c0,0,0,0.1,0.1,0.1c0,0,0,0,0,0c0,0,0,0,0,0l3.5,2.4c0.1,0,0.1,0.1,0.2,0.1c0,0,0.1,0,0.1,0l4.7-1.3
	c0,0,0,0,0,0c0,0,0,0,0.1,0c0,0,0,0,0,0c0,0,0,0,0,0c0,0,0,0,0,0l2.4-3.6c0,0,0,0,0-0.1c0,0,0,0,0-0.1c0,0,0,0,0,0c0,0,0,0,0,0
	L49.6,30C49.7,30.1,49.7,30.1,49.6,30z M39.3,34l-0.7,2.1L37.9,34H39.3z M38,33.3l0.6-1.2l0.6,1.2H38z M39.4,31.3l1.2-0.6v1.2
	L39.4,31.3z M40.5,35.9l-1.3,0.7l0.6-1.9L40.5,35.9z M40.3,32.6L39.9,33l-0.5-0.9L40.3,32.6z M40,36.9l0.9-0.5l0.9,0.5H40z
	 M42.7,37.6L42,39.1l-2.2-1.5H42.7z M29.7,28.9c0.1-0.2,0.3-0.4,0.5-0.5L29.7,28.9z M30,29.7l1.1-1.1v1.1H30z M43.3,38.1l0.2-0.4
	l2.1,0.6l-2.7,0.7L43.3,38.1z M47.1,29.8h-2.5l-1.2-1.3L47.1,29.8z M48.9,30.5V34l-2.8-2.7l-0.8-0.8H48.9z M46,34.5l-0.8-3.2
	l3.3,3.2H46z M45.5,35.5l0.8,2.3L44,37.1L45.5,35.5z M48.6,35.2L47,37.6l-0.8-2.4H48.6z M37.6,25.5l-2.3,3.5v-3.3L37.6,25.5z
	 M31.8,29.8v-1.4l2,1.4H31.8z M34.6,26.2v1.7l-0.4-1.2L34.6,26.2z M32.2,27.7l1.4-0.7l0.7,2.1L32.2,27.7z M32.6,25h-2l0-1.4L32.6,25
	z M30.7,22.9l0.6-0.6l1.2,1.8L30.7,22.9z M32.1,21.6l0.2-0.2l0.6,0.4L32.1,21.6z M34.5,23l-0.7,1.6l-1.5-2.3L34.5,23z M30.9,16.9
	L30.1,19l-3.7-2.1H30.9z M29.3,20.2l-2.9,4.4L24.8,22L29.3,20.2z M20.7,22.6h-2v-1.3L20.7,22.6z M16.9,5.6l3.9-4.8l1.6,0.8L16.9,5.6
	z M19,15.2l-6.5-1.3l1.2-2.3L19,15.2z M15.6,9.7l-1,1h-0.9l-1-1V8.8l1-1h0.9l1,1V9.7z M14.8,11.4c0.1,0,0.2,0,0.3-0.1l1.2-1.2
	c0.1-0.1,0.1-0.2,0.1-0.3V9.6l1.7,1.7l1.7,3.5L14.8,11.4L14.8,11.4z M15.4,7.6L23,2.1l0.9,1.8l-5.5,6.7L15.4,7.6z M14,7.2V4.9l2.2-3
	L19.8,1l-5.1,6.2H14z M13.2,11.1l-1.4,2.6l-2.7-0.6v-1.8l3.2-1L13.2,11.1z M9.8,10.4l3.5-4.6v1.6l-1.1,1.1c-0.1,0.1-0.1,0.2-0.1,0.3
	v0.9L9.8,10.4z M11.9,14.4C11.9,14.4,12,14.4,11.9,14.4l5.2,1.1h-5.8L9.9,14L11.9,14.4z M24.2,5.3l0.3-1.1l1.7-0.6L24.2,5.3z
	 M31.2,6.8l2.7-3.6L36.6,5L31.2,6.8z M37.8,10.7V6l4.7,4.7H37.8z M41,15.2l2.1-3.2l0.9,5.4L41,15.2z M39.9,22
	C39.9,22,39.9,22,39.9,22l4.1-1l-2,6l-3.4-2.3c0,0,0,0,0,0l-2.7-1.8L39.9,22z M28.4,19.8l-2.6,1l1.1-1L28.4,19.8z M26.9,19.1
	l-0.8-1.4l2.6,1.5L26.9,19.1z M20,19.5l0.5-0.6l0.5,2.1L20,19.5z M23.4,5.5l-2.8,9.4l-1.9-3.8L23.4,5.5z M38.1,11.4h4.5l-2.1,3.2
	L38.1,11.4z M43.5,19.9l-11.4-3.5l5.2-4.8l2.9,3.9c0,0,0,0,0,0L43.5,19.9z M24.6,18.3C24.6,18.3,24.6,18.3,24.6,18.3
	C24.6,18.3,24.6,18.3,24.6,18.3C24.6,18.3,24.6,18.3,24.6,18.3z M23.7,18.6L22,21.9l-0.6-2.3l-0.3-1.1H23.7z M23.9,16.8v0.7l-1.5-1
	L23.9,16.8z M21.1,17.9v-1.3l2,1.3H21.1z M21.2,15.6l2.2-7.2l0.5,7.8L21.2,15.6z M24.6,15.5L24,6.8l5.7,1L24.6,15.5z M25.2,15.7
	L30.4,8l6.1,3L25.2,15.7z M30.3,6.8l-1.8-3.8h4.6L30.3,6.8z M22.5,22.6l2.1-4.2c0,0,0,0,0,0c0,0,0,0,0,0c0,0,0,0,0-0.1
	c0,0,0,0,0-0.1V17L25,17l1.2,2.3L24,21.5l-1.3,1.1C22.6,22.6,22.6,22.6,22.5,22.6z M35.5,12.2l-4.3,4h-5.2L35.5,12.2z M31.6,17
	l11.5,3.6L35,22.4l-4.4-3L31.6,17z M42.3,17.1l1.8,1.4v1.1L42.3,17.1z M31.2,7.6l5.9-1.9v4.8L31.2,7.6z M24.4,6.1l3.4-2.8L29.6,7
	L24.4,6.1z M18.9,20.5l0.5-0.5l1.1,1.6L18.9,20.5z M22.5,23.8v1.2h-1.2L22.5,23.8z M23.4,22.9l0.7-0.6l1.1,1.8L23.4,22.9z
	 M25.2,24.9h-2v-1.3L25.2,24.9z M35.3,24.9v-1.5l2,1.3L35.3,24.9z M46.4,25.1L42.8,27l1.8-5.4L46.4,25.1z M46.7,25.8l1.9,3.7
	l-5.5-1.9L46.7,25.8z M18,21.5v1.1h-1.1L18,21.5z M29.9,24.9h-1.1l1.1-1.1L29.9,24.9z M29,23.7l-0.5,0.5C28.6,24,28.8,23.8,29,23.7z
	 M42.6,34.5l0.7-2l0.7,2H42.6z M42.7,32.1L42,33.9l-0.6-1.2L42.7,32.1z M41.3,31.9v-1.2l1.2,0.7L41.3,31.9z M20.7,0.2L20.7,0.2
	L20.7,0.2L20.7,0.2z M8.7,11C8.7,11,8.7,11,8.7,11L8.7,11L8.7,11z"/>
<g>
	
		<linearGradient id="SVGID_00000127015316428251320130000015996946517097494441_" gradientUnits="userSpaceOnUse" x1="54.3323" y1="18.9541" x2="157.3779" y2="32.1651">
		<stop  offset="9.093900e-04" style="stop-color:#A44C96"/>
		<stop  offset="0.1273" style="stop-color:#9D529A"/>
		<stop  offset="0.3162" style="stop-color:#8861A7"/>
		<stop  offset="0.5432" style="stop-color:#677BBA"/>
		<stop  offset="0.55" style="stop-color:#667CBB"/>
		<stop  offset="0.7205" style="stop-color:#5C93CD"/>
		<stop  offset="1" style="stop-color:#49C1F0"/>
	</linearGradient>
	<path style="fill:url(#SVGID_00000127015316428251320130000015996946517097494441_);" d="M62.2,9.6H76v3.7h-9.3v5.2h7.9v3.8h-7.9v6
		h9.6v3.8H62.2V9.6z"/>
	
		<linearGradient id="SVGID_00000154407277973209046870000003696370087966639007_" gradientUnits="userSpaceOnUse" x1="54.559" y1="17.1855" x2="157.6047" y2="30.3965">
		<stop  offset="9.093900e-04" style="stop-color:#A44C96"/>
		<stop  offset="0.1273" style="stop-color:#9D529A"/>
		<stop  offset="0.3162" style="stop-color:#8861A7"/>
		<stop  offset="0.5432" style="stop-color:#677BBA"/>
		<stop  offset="0.55" style="stop-color:#667CBB"/>
		<stop  offset="0.7205" style="stop-color:#5C93CD"/>
		<stop  offset="1" style="stop-color:#49C1F0"/>
	</linearGradient>
	<path style="fill:url(#SVGID_00000154407277973209046870000003696370087966639007_);" d="M80.9,9.6h4.5v18.7h9.1v3.8H80.9V9.6z"/>
	
		<linearGradient id="SVGID_00000035505863803833764410000012938036540619232956_" gradientUnits="userSpaceOnUse" x1="54.9177" y1="14.3876" x2="157.9634" y2="27.5986">
		<stop  offset="9.093900e-04" style="stop-color:#A44C96"/>
		<stop  offset="0.1273" style="stop-color:#9D529A"/>
		<stop  offset="0.3162" style="stop-color:#8861A7"/>
		<stop  offset="0.5432" style="stop-color:#677BBA"/>
		<stop  offset="0.55" style="stop-color:#667CBB"/>
		<stop  offset="0.7205" style="stop-color:#5C93CD"/>
		<stop  offset="1" style="stop-color:#49C1F0"/>
	</linearGradient>
	<path style="fill:url(#SVGID_00000035505863803833764410000012938036540619232956_);" d="M98.4,9.6h13.8v3.7h-9.3v5.9h8V23h-8v9.1
		h-4.5V9.6z"/>
	
		<linearGradient id="SVGID_00000153679705428168310010000008547403897927959951_" gradientUnits="userSpaceOnUse" x1="55.2409" y1="11.8667" x2="158.2866" y2="25.0777">
		<stop  offset="9.093900e-04" style="stop-color:#A44C96"/>
		<stop  offset="0.1273" style="stop-color:#9D529A"/>
		<stop  offset="0.3162" style="stop-color:#8861A7"/>
		<stop  offset="0.5432" style="stop-color:#677BBA"/>
		<stop  offset="0.55" style="stop-color:#667CBB"/>
		<stop  offset="0.7205" style="stop-color:#5C93CD"/>
		<stop  offset="1" style="stop-color:#49C1F0"/>
	</linearGradient>
	<path style="fill:url(#SVGID_00000153679705428168310010000008547403897927959951_);" d="M115.4,9.9c0-1.5,1.1-2.4,2.7-2.4
		c1.5,0,2.6,1,2.6,2.4c0,1.4-1.1,2.4-2.6,2.4C116.5,12.4,115.4,11.3,115.4,9.9z M115.8,15.1h4.4v17h-4.4V15.1z"/>
	
		<linearGradient id="SVGID_00000039835390719288157790000017377470268443638665_" gradientUnits="userSpaceOnUse" x1="55.3365" y1="11.1209" x2="158.3822" y2="24.3319">
		<stop  offset="9.093900e-04" style="stop-color:#A44C96"/>
		<stop  offset="0.1273" style="stop-color:#9D529A"/>
		<stop  offset="0.3162" style="stop-color:#8861A7"/>
		<stop  offset="0.5432" style="stop-color:#677BBA"/>
		<stop  offset="0.55" style="stop-color:#667CBB"/>
		<stop  offset="0.7205" style="stop-color:#5C93CD"/>
		<stop  offset="1" style="stop-color:#49C1F0"/>
	</linearGradient>
	<path style="fill:url(#SVGID_00000039835390719288157790000017377470268443638665_);" d="M146.8,21.8h8.3V25h-8.3V21.8z"/>
	
		<linearGradient id="SVGID_00000060028084428870492430000001153592468354381476_" gradientUnits="userSpaceOnUse" x1="55.9671" y1="6.2024" x2="159.0128" y2="19.4134">
		<stop  offset="9.093900e-04" style="stop-color:#A44C96"/>
		<stop  offset="0.1273" style="stop-color:#9D529A"/>
		<stop  offset="0.3162" style="stop-color:#8861A7"/>
		<stop  offset="0.5432" style="stop-color:#677BBA"/>
		<stop  offset="0.55" style="stop-color:#667CBB"/>
		<stop  offset="0.7205" style="stop-color:#5C93CD"/>
		<stop  offset="1" style="stop-color:#49C1F0"/>
	</linearGradient>
	<path style="fill:url(#SVGID_00000060028084428870492430000001153592468354381476_);" d="M159.2,22V9.6h4.5v12.7
		c0,4.7,1.6,6.3,4.2,6.3c2.7,0,4.4-1.6,4.4-6.3V9.6h4.3V22c0,7.5-3.2,10.5-8.7,10.5C162.5,32.5,159.2,29.4,159.2,22z"/>
	
		<linearGradient id="SVGID_00000072238170421100861320000011986937464482279836_" gradientUnits="userSpaceOnUse" x1="56.1946" y1="4.4276" x2="159.2403" y2="17.6386">
		<stop  offset="9.093900e-04" style="stop-color:#A44C96"/>
		<stop  offset="0.1273" style="stop-color:#9D529A"/>
		<stop  offset="0.3162" style="stop-color:#8861A7"/>
		<stop  offset="0.5432" style="stop-color:#677BBA"/>
		<stop  offset="0.55" style="stop-color:#667CBB"/>
		<stop  offset="0.7205" style="stop-color:#5C93CD"/>
		<stop  offset="1" style="stop-color:#49C1F0"/>
	</linearGradient>
	<path style="fill:url(#SVGID_00000072238170421100861320000011986937464482279836_);" d="M182,9.6h4.5v22.5H182V9.6z"/>
	
		<linearGradient id="SVGID_00000111179108238295681330000006490496765399354810_" gradientUnits="userSpaceOnUse" x1="55.381" y1="10.7742" x2="158.4266" y2="23.9851">
		<stop  offset="9.093900e-04" style="stop-color:#A44C96"/>
		<stop  offset="0.1273" style="stop-color:#9D529A"/>
		<stop  offset="0.3162" style="stop-color:#8861A7"/>
		<stop  offset="0.5432" style="stop-color:#677BBA"/>
		<stop  offset="0.55" style="stop-color:#667CBB"/>
		<stop  offset="0.7205" style="stop-color:#5C93CD"/>
		<stop  offset="1" style="stop-color:#49C1F0"/>
	</linearGradient>
	<polygon style="fill:url(#SVGID_00000111179108238295681330000006490496765399354810_);" points="138.3,9.6 138.3,18.6 138.3,25.5 
		136.5,21.6 130,9.6 125.4,9.6 125.4,9.8 125.4,32.1 129.6,32.1 129.6,23.1 129.6,16.1 131.5,20.1 138,32.1 142.6,32.1 142.6,31.9 
		142.6,9.6 	"/>
</g>
</svg>
